<svg aria-hidden="true" style="position:absolute;width:0;height:0;overflow:hidden" xmlns="http://www.w3.org/2000/svg"><defs><symbol id="icon-anchor" viewBox="0 0 31 32"><path fill="none" stroke-linejoin="round" stroke-linecap="round" stroke-width="1.049" d="M15.738 10.754a3.934 3.934 0 1 0 0-7.868v0a3.934 3.934 0 0 0 0 7.868v0zm0 18.361V10.754M6.557 16H2.623c0 7.243 5.872 13.115 13.115 13.115S28.853 23.243 28.853 16v0h-3.934"/></symbol><symbol id="icon-battery-charging" viewBox="0 0 33 32"><path fill="none"  stroke-linejoin="round" stroke-linecap="round" stroke-width="1.067" d="M6.933 24H4.266a2.667 2.667 0 0 1-2.667-2.667v0-10.667a2.667 2.667 0 0 1 2.667-2.667v0h4.253M20.267 8h2.667a2.667 2.667 0 0 1 2.667 2.667v10.667a2.667 2.667 0 0 1-2.667 2.667v0h-4.253m12.252-6.668v-2.667M14.933 8 9.6 16h8l-5.333 8"/></symbol><symbol id="icon-cloud-lightning" viewBox="0 0 32 32"><path fill="none" stroke-linejoin="round" stroke-linecap="round" stroke-width="1.049" d="M25.18 22.426c3.018-.629 5.253-3.267 5.253-6.426a6.557 6.557 0 0 0-6.557-6.557H22.217c-1.207-4.561-5.296-7.868-10.158-7.868-5.794 0-10.492 4.697-10.492 10.492 0 3.93 2.16 7.355 5.358 9.152l.053.027"/><path fill="none" stroke-linejoin="round" stroke-linecap="round" stroke-width="1.049" d="m17.311 14.689-5.246 7.869h7.869l-5.246 7.869"/></symbol><symbol id="icon-git-pull-request" viewBox="0 0 32 32"><path fill="none" stroke-linejoin="round" stroke-linecap="round" stroke-width="1.067" d="M24 28a4 4 0 0 0 0-8v0a4 4 0 0 0 0 8v0zM8 12a4 4 0 0 0 0-8v0a4 4 0 0 0 0 8v0zm9.333-4h4A2.667 2.667 0 0 1 24 10.667V20M8 12v16"/></symbol><symbol id="icon-mic-off" viewBox="0 0 32 32"><path fill="none" stroke-linejoin="round" stroke-linecap="round" stroke-width="1.067" d="m1.333 1.333 29.333 29.333M12 12v4a4 4 0 0 0 6.827 2.826h0M20 12.453V5.329a4 4 0 0 0-7.915-.822l-.005.026"/><path fill="none" stroke-linejoin="round" stroke-linecap="round" stroke-width="1.067" d="M22.667 22.6a9.333 9.333 0 0 1-16-6.531v-.072.004-2.667m18.666-.001V16c0 .55-.05 1.099-.147 1.64M16 25.333v5.333m-5.333.001h10.667"/></symbol><symbol id="icon-move" viewBox="0 0 32 32"><path fill="none" stroke-linejoin="round" stroke-linecap="round" stroke-width="1.067" d="m6.667 12-4 4 4 4M12 6.667l4-4 4 4m0 18.666-4 4-4-4M25.333 12l4 4-4 4M2.667 16h26.667M16 2.667v26.667"/></symbol><symbol id="icon-tiktok" viewBox="0 0 33 32"><path d="M16.895 32c-8.837 0-16-7.164-16-16s7.163-16 16-16c8.836 0 16 7.164 16 16s-7.164 16-16 16zm1.758-23.996c-.497 0-.996.001-1.497.01a588.319 588.319 0 0 0-.011 5.227v-.068c0 .962.001 1.925-.001 2.889-.002.323-.002.646-.001.969 0 .868.001 1.734-.046 2.605-.007.241-.128.453-.245.658l-.029.05c-.388.633-1.102 1.065-1.845 1.072-1.124.099-2.176-.82-2.334-1.914l-.005-.162c-.011-.308-.021-.623.096-.911a2.3 2.3 0 0 1 .909-1.166c.578-.402 1.351-.462 2.013-.247 0-.422.007-.844.014-1.265.011-.565.019-1.131.012-1.697-1.447-.271-2.994.187-4.098 1.149a4.988 4.988 0 0 0-1.72 3.286l-.002.021c-.012.331-.01.662.007.992.139 1.561 1.086 3.014 2.432 3.808.813.48 1.765.739 2.72.685 1.554-.026 3.068-.859 3.939-2.138a5.025 5.025 0 0 0 .901-2.614l.001-.013c.014-1.28.013-2.563.012-3.847l.001-1.987c.347.227.701.448 1.081.621.873.413 1.839.613 2.8.645v-2.685c-1.026-.114-2.08-.453-2.827-1.193-.747-.722-1.114-1.761-1.166-2.782-.37.003-.74.004-1.109.004z"/></symbol><symbol id="icon-youtube" viewBox="0 0 33 32"><path d="M18.565 15.733l-3.595-1.677c-0.313-0.146-0.571 0.017-0.571 0.365v3.157c0 0.348 0.258 0.512 0.572 0.366l3.591-1.677c0.316-0.147 0.316-0.387 0.002-0.534zM16 0.64c-8.483 0-15.36 6.877-15.36 15.36s6.877 15.36 15.36 15.36 15.36-6.877 15.36-15.36-6.877-15.36-15.36-15.36zM16 22.24c-7.861 0-8-0.708-8-6.24 0-5.531 0.139-6.24 8-6.24 7.862 0 8 0.709 8 6.24 0 5.532-0.138 6.24-8 6.24z"></path><symbol id="icon-instagram" viewBox="0 0 33 32"><path d="M16.895 32c8.836 0 16-7.164 16-16s-7.164-16-16-16c-8.837 0-16 7.164-16 16s7.163 16 16 16zm-8-19.394A4.61 4.61 0 0 1 13.499 8h6.79a4.61 4.61 0 0 1 4.606 4.606v6.851a4.61 4.61 0 0 1-4.606 4.605h-6.79a4.612 4.612 0 0 1-4.605-4.604v-6.852zm3.836 3.396c0-2.279 1.874-4.132 4.176-4.132 2.304 0 4.177 1.853 4.177 4.132 0 2.278-1.874 4.131-4.176 4.131-2.304 0-4.177-1.853-4.177-4.131zm1.521 0c0 1.439 1.191 2.61 2.656 2.61 1.463 0 2.655-1.171 2.655-2.61 0-1.44-1.191-2.611-2.656-2.611-1.463 0-2.655 1.171-2.655 2.611zm6.906-3.318a.983.983 0 1 0 0-1.966.983.983 0 1 0 0 1.966z"/></symbol><symbol id="icon-telegram" viewBox="0 0 33 32"><path d="M16.895 32c-8.837 0-16-7.164-16-16s7.163-16 16-16c8.836 0 16 7.164 16 16s-7.164 16-16 16zm7.032-21.778c.124-1.402-1.357-.825-1.357-.825-1.093.453-2.22.912-3.36 1.377-3.532 1.44-7.182 2.929-10.29 4.395-1.685.619-.699 1.237-.699 1.237l2.672.825c1.234.371 1.891-.043 1.891-.043l5.756-3.915c2.057-1.403 1.563-.249 1.069.246l-4.317 4.123c-.657.577-.329 1.072-.041 1.319.816.719 2.822 2.036 3.698 2.611.227.149.379.249.413.274.206.165 1.316.907 2.057.742.74-.165.821-1.114.821-1.114l.987-6.473c.149-1.123.318-2.203.454-3.066.128-.815.225-1.436.245-1.716z"/></symbol><symbol id="icon-cross" viewBox="0 0 32 32"><path d="M26 32h-20c-3.314 0-6-2.686-6-6v0-20c0-3.314 2.686-6 6-6v0h20c3.312 0 6 2.686 6 6v20c0 3.314-2.688 6-6 6zM28 6c0-1.106-0.894-2-2-2h-20c-1.105 0-2 0.895-2 2v0 20c0 1.105 0.895 2 2 2v0h20c1.106 0 2-0.894 2-2v-20zM21.656 21.656c-0.362 0.362-0.862 0.586-1.414 0.586s-1.052-0.224-1.414-0.586l-2.828-2.828-2.828 2.828c-0.362 0.362-0.862 0.586-1.415 0.586-1.105 0-2-0.896-2-2 0-0.552 0.224-1.052 0.585-1.414v0l2.83-2.828-2.83-2.828c-0.362-0.362-0.585-0.862-0.585-1.414 0-1.105 0.896-2 2-2 0.553 0 1.053 0.224 1.415 0.586l2.828 2.828 2.828-2.828c0.782-0.782 2.046-0.782 2.828 0s0.782 2.046 0 2.828l-2.828 2.828 2.828 2.828c0.362 0.362 0.586 0.862 0.586 1.414s-0.224 1.052-0.586 1.414l-0 0z"></path></symbol><symbol id="icon-mobile-menu" viewBox="0 0 50 32"><path d="M0.514 5.334v-5.334h48v5.334h-48zM0.514 18.666h48v-5.332h-48v5.332zM0.514 32h48v-5.334h-48v5.334z"></path></symbol><symbol id="icon-cross2" viewBox="0 0 32 32"><path d="M31.439 3.166l-3.166-3.166-12.554 12.552-12.552-12.552-3.166 3.166 12.552 12.552-12.552 12.554 3.166 3.166 12.552-12.554 12.554 12.554 3.166-3.166-12.554-12.554 12.554-12.552z"></path></symbol></defs></svg>